<?xml version="1.0" encoding="UTF-8" standalone="no"?>
<!DOCTYPE svg PUBLIC "-//W3C//DTD SVG 1.1//EN" "http://www.w3.org/Graphics/SVG/1.1/DTD/svg11.dtd">
<svg width="100%" height="100%" viewBox="0 0 400 400" version="1.1" xmlns="http://www.w3.org/2000/svg" xmlns:xlink="http://www.w3.org/1999/xlink" xml:space="preserve" xmlns:serif="http://www.serif.com/" style="fill-rule:evenodd;clip-rule:evenodd;stroke-linejoin:round;stroke-miterlimit:2;">
    <g transform="matrix(3.2205,0,0,3.2205,-843.614,2.43121)">
        <path d="M289.293,0.236C282.618,7.589 278.333,15.667 276,23C273.878,29.67 272.98,35.152 276,44C278.432,51.126 286.136,60.996 294,68C300.437,73.319 307.027,81.042 310,88C314.145,97.701 309.967,106.029 305.289,109.711C297.919,115.512 289.881,115.579 284.318,111.977C274.666,105.729 273.29,100.496 272,92C270.38,81.333 270.636,70.667 272,60C267.426,70.029 265.833,85.333 267,95C268.919,112.27 279.213,118.57 284.579,120.91C298.249,126.87 328.471,115.882 316.943,83.619C313.831,74.91 301.594,65.806 296.689,60.116C275.616,41.774 276.196,24.004 289.293,0.236Z" style="fill:rgb(210,41,41);"/>
    </g>
    <g transform="matrix(-3.2205,0,0,3.2205,1243.61,2.43121)">
        <path d="M289.293,0.236C282.618,7.589 278.333,15.667 276,23C273.878,29.67 272.98,35.152 276,44C278.432,51.126 286.136,60.996 294,68C300.437,73.319 307.027,81.042 310,88C314.145,97.701 309.967,106.029 305.289,109.711C297.919,115.512 289.881,115.579 284.318,111.977C274.666,105.729 273.29,100.496 272,92C270.38,81.333 270.636,70.667 272,60C267.426,70.029 265.833,85.333 267,95C268.919,112.27 279.213,118.57 284.579,120.91C298.249,126.87 328.471,115.882 316.943,83.619C313.831,74.91 301.594,65.806 296.689,60.116C275.616,41.774 276.196,24.004 289.293,0.236Z" style="fill:rgb(210,41,41);"/>
    </g>
    <g transform="matrix(3.2205,0,0,3.2205,-843.306,2.43121)">
        <path d="M325.605,70.568C325.605,70.568 327.407,63.726 328.5,62.424C331.697,55.704 347.411,46.502 350.89,41.012C352.535,38.416 355.668,33.427 355,27C354.669,23.811 353.247,20.257 350,17C347.332,14.324 342.809,11.522 337,12C332.958,12.333 327.624,16.064 326,21C326,21 323.5,12.333 311,13C306.534,13.238 300.984,15.669 298,19C290.833,27 295.496,37.726 299.794,43.261C305.877,51.094 316.959,60.225 316.959,60.225C318.422,61.352 324.438,67.429 325.605,70.568ZM325.065,27.844C325.065,27.844 327.477,22.05 333.928,20.965C335.154,20.758 340.855,20.225 342.656,25.201C343.904,28.647 343.178,35.081 339.617,40.115C329.49,51.614 324.656,61.347 324.656,61.347C322.641,54.935 317.161,51.417 308,38C303.627,31.596 304.308,26.815 307.113,23.839C309.435,21.375 313.912,19.494 317.647,21.293C325.402,25.031 325.065,27.844 325.065,27.844Z" style="fill:rgb(53,144,64);"/>
    </g>
    <g transform="matrix(3.2205,0,0,3.2205,-844.232,2.43121)">
        <path d="M282.686,71.928C282.686,71.928 283.159,78.152 284.616,80.386C287.116,84.219 295.936,90.231 298,95C299.858,99.294 297,109 297,109C297,109 296.456,103.941 295,102C292.5,98.667 283.91,93.502 282,89C279.542,81.459 280.806,76.555 282.686,71.928Z" style="fill:rgb(53,144,64);"/>
    </g>
    <g transform="matrix(-3.2205,0,0,3.2205,1244.11,2.43121)">
        <path d="M282.686,71.928C282.686,71.928 283.159,78.152 284.616,80.386C287.116,84.219 295.936,90.231 298,95C299.858,99.294 297,109 297,109C297,109 296.456,103.941 295,102C292.5,98.667 283.91,93.502 282,89C279.542,81.459 280.806,76.555 282.686,71.928Z" style="fill:rgb(53,144,64);"/>
    </g>
</svg>
