<svg width="100%" height="100%" viewBox="0 0 1280 960" version="1.1" xmlns="http://www.w3.org/2000/svg" xmlns:xlink="http://www.w3.org/1999/xlink" xml:space="preserve" xmlns:serif="http://www.serif.com/" style="fill-rule:evenodd;clip-rule:evenodd;stroke-linecap:round;stroke-linejoin:bevel;stroke-miterlimit:13;">
    <g transform="matrix(1.49025,0,0,1,36.7335,0)">
        <path d="M767.164,29.825C741.12,29.358 743.439,52.5 744,125L744,844C745.349,918.211 744.652,937.354 695.051,937.471C663.422,937.546 639.484,894.927 633.281,850L23,845C22.192,895.632 47.284,928.689 100,943L695.051,937.471" style="fill:none;stroke:rgb(58,120,58);stroke-width:4.73px;"/>
    </g>
    <g transform="matrix(1.39856,0,0,1,-43.4431,0)">
        <path d="M929,124C931.359,68.523 926.712,30.594 874.787,29.818L197,34C119.381,34.355 102.845,68.501 102.565,124L102.565,831" style="fill:none;stroke:rgb(58,120,58);stroke-width:4.94px;"/>
    </g>
    <path d="M1255.82,124L1165,124" style="fill:none;stroke:rgb(58,120,58);stroke-width:6px;"/>
</svg>
